<svg width="1200" height="620" viewBox="0 0 1200 620" xmlns="http://www.w3.org/2000/svg">
<defs>
<radialGradient id="bgg" cx="50%" cy="50%" r="70%">
<stop offset="0%" stop-color="#150f2b"/>
<stop offset="100%" stop-color="#0d0b1a"/>
</radialGradient>
<radialGradient id="core" cx="50%" cy="50%" r="50%">
<stop offset="0%" stop-color="#F472B6"/>
<stop offset="100%" stop-color="#8B5CF6"/>
</radialGradient>
<style>
.lbl { font-family: 'Segoe UI', Arial, sans-serif; font-weight: 600; }
.cat { font-family: 'Segoe UI', Arial, sans-serif; font-weight: 700; letter-spacing: 1px; }
</style>
</defs>
<rect width="1200" height="620" rx="18" fill="url(#bgg)"/>
<rect width="1200" height="620" rx="18" fill="none" stroke="#2a2440" stroke-width="1.5"/>
<circle cx="600.0" cy="310.0" r="140" fill="none" stroke="#C084FC" stroke-opacity="0.25" stroke-width="1.5" stroke-dasharray="4 6"/>
<circle cx="600.0" cy="310.0" r="210" fill="none" stroke="#F472B6" stroke-opacity="0.25" stroke-width="1.5" stroke-dasharray="4 6"/>
<circle cx="600.0" cy="310.0" r="280" fill="none" stroke="#7dd3fc" stroke-opacity="0.25" stroke-width="1.5" stroke-dasharray="4 6"/>
<circle cx="600.0" cy="310.0" r="350" fill="none" stroke="#86efac" stroke-opacity="0.25" stroke-width="1.5" stroke-dasharray="4 6"/>
<circle cx="600.0" cy="310.0" r="52" fill="url(#core)">
<animate attributeName="r" values="52;57;52" dur="3s" repeatCount="indefinite"/>
</circle>
<text x="600.0" y="313.0" text-anchor="middle" fill="white" class="cat" font-size="17">AGRIM</text>
<text x="600.0" y="331.0" text-anchor="middle" fill="white" opacity="0.85" class="lbl" font-size="10">FULL STACK</text>
<line x1="600.0" y1="310.0" x2="600.0" y2="170.0" stroke="#C084FC" stroke-opacity="0.2" stroke-width="1"/>
<g transform="translate(568.5,155.0)">
<rect width="63.0" height="30" rx="15" fill="#161327" stroke="#C084FC" stroke-width="1.4"/>
<text x="31.5" y="20.0" text-anchor="middle" fill="#C084FC" class="lbl" font-size="13">React</text>
</g>
<circle cx="600.0" cy="170.0" r="2.5" fill="#C084FC"/>
<line x1="600.0" y1="310.0" x2="740.0" y2="310.0" stroke="#C084FC" stroke-opacity="0.2" stroke-width="1"/>
<g transform="translate(700.3,295.0)">
<rect width="79.4" height="30" rx="15" fill="#161327" stroke="#C084FC" stroke-width="1.4"/>
<text x="39.7" y="20.0" text-anchor="middle" fill="#C084FC" class="lbl" font-size="13">Next.js</text>
</g>
<circle cx="740.0" cy="310.0" r="2.5" fill="#C084FC"/>
<line x1="600.0" y1="310.0" x2="600.0" y2="450.0" stroke="#C084FC" stroke-opacity="0.2" stroke-width="1"/>
<g transform="translate(548.0,435.0)">
<rect width="104.0" height="30" rx="15" fill="#161327" stroke="#C084FC" stroke-width="1.4"/>
<text x="52.0" y="20.0" text-anchor="middle" fill="#C084FC" class="lbl" font-size="13">TypeScript</text>
</g>
<circle cx="600.0" cy="450.0" r="2.5" fill="#C084FC"/>
<line x1="600.0" y1="310.0" x2="460.0" y2="310.0" stroke="#C084FC" stroke-opacity="0.2" stroke-width="1"/>
<g transform="translate(416.2,295.0)">
<rect width="87.6" height="30" rx="15" fill="#161327" stroke="#C084FC" stroke-width="1.4"/>
<text x="43.8" y="20.0" text-anchor="middle" fill="#C084FC" class="lbl" font-size="13">Tailwind</text>
</g>
<circle cx="460.0" cy="310.0" r="2.5" fill="#C084FC"/>
<line x1="600.0" y1="310.0" x2="654.4" y2="107.2" stroke="#F472B6" stroke-opacity="0.2" stroke-width="1"/>
<g transform="translate(614.7,92.2)">
<rect width="79.4" height="30" rx="15" fill="#161327" stroke="#F472B6" stroke-width="1.4"/>
<text x="39.7" y="20.0" text-anchor="middle" fill="#F472B6" class="lbl" font-size="13">Node.js</text>
</g>
<circle cx="654.4" cy="107.2" r="2.5" fill="#F472B6"/>
<line x1="600.0" y1="310.0" x2="802.8" y2="364.4" stroke="#F472B6" stroke-opacity="0.2" stroke-width="1"/>
<g transform="translate(763.1,349.4)">
<rect width="79.4" height="30" rx="15" fill="#161327" stroke="#F472B6" stroke-width="1.4"/>
<text x="39.7" y="20.0" text-anchor="middle" fill="#F472B6" class="lbl" font-size="13">Express</text>
</g>
<circle cx="802.8" cy="364.4" r="2.5" fill="#F472B6"/>
<line x1="600.0" y1="310.0" x2="545.6" y2="512.8" stroke="#F472B6" stroke-opacity="0.2" stroke-width="1"/>
<g transform="translate(505.9,497.8)">
<rect width="79.4" height="30" rx="15" fill="#161327" stroke="#F472B6" stroke-width="1.4"/>
<text x="39.7" y="20.0" text-anchor="middle" fill="#F472B6" class="lbl" font-size="13">FastAPI</text>
</g>
<circle cx="545.6" cy="512.8" r="2.5" fill="#F472B6"/>
<line x1="600.0" y1="310.0" x2="397.2" y2="255.6" stroke="#F472B6" stroke-opacity="0.2" stroke-width="1"/>
<g transform="translate(349.3,240.6)">
<rect width="95.8" height="30" rx="15" fill="#161327" stroke="#F472B6" stroke-width="1.4"/>
<text x="47.9" y="20.0" text-anchor="middle" fill="#F472B6" class="lbl" font-size="13">REST APIs</text>
</g>
<circle cx="397.2" cy="255.6" r="2.5" fill="#F472B6"/>
<line x1="600.0" y1="310.0" x2="600.0" y2="30.0" stroke="#7dd3fc" stroke-opacity="0.2" stroke-width="1"/>
<g transform="translate(560.3,15.0)">
<rect width="79.4" height="30" rx="15" fill="#161327" stroke="#7dd3fc" stroke-width="1.4"/>
<text x="39.7" y="20.0" text-anchor="middle" fill="#7dd3fc" class="lbl" font-size="13">MongoDB</text>
</g>
<circle cx="600.0" cy="30.0" r="2.5" fill="#7dd3fc"/>
<line x1="600.0" y1="310.0" x2="880.0" y2="310.0" stroke="#7dd3fc" stroke-opacity="0.2" stroke-width="1"/>
<g transform="translate(828.0,295.0)">
<rect width="104.0" height="30" rx="15" fill="#161327" stroke="#7dd3fc" stroke-width="1.4"/>
<text x="52.0" y="20.0" text-anchor="middle" fill="#7dd3fc" class="lbl" font-size="13">PostgreSQL</text>
</g>
<circle cx="880.0" cy="310.0" r="2.5" fill="#7dd3fc"/>
<line x1="600.0" y1="310.0" x2="600.0" y2="590.0" stroke="#7dd3fc" stroke-opacity="0.2" stroke-width="1"/>
<g transform="translate(568.5,575.0)">
<rect width="63.0" height="30" rx="15" fill="#161327" stroke="#7dd3fc" stroke-width="1.4"/>
<text x="31.5" y="20.0" text-anchor="middle" fill="#7dd3fc" class="lbl" font-size="13">MySQL</text>
</g>
<circle cx="600.0" cy="590.0" r="2.5" fill="#7dd3fc"/>
<line x1="600.0" y1="310.0" x2="320.0" y2="310.0" stroke="#7dd3fc" stroke-opacity="0.2" stroke-width="1"/>
<g transform="translate(276.2,295.0)">
<rect width="87.6" height="30" rx="15" fill="#161327" stroke="#7dd3fc" stroke-width="1.4"/>
<text x="43.8" y="20.0" text-anchor="middle" fill="#7dd3fc" class="lbl" font-size="13">Firebase</text>
</g>
<circle cx="320.0" cy="310.0" r="2.5" fill="#7dd3fc"/>
<line x1="600.0" y1="310.0" x2="690.6" y2="-28.1" stroke="#86efac" stroke-opacity="0.2" stroke-width="1"/>
<g transform="translate(655.0,-43.1)">
<rect width="71.2" height="30" rx="15" fill="#161327" stroke="#86efac" stroke-width="1.4"/>
<text x="35.6" y="20.0" text-anchor="middle" fill="#86efac" class="lbl" font-size="13">Docker</text>
</g>
<circle cx="690.6" cy="-28.1" r="2.5" fill="#86efac"/>
<line x1="600.0" y1="310.0" x2="938.1" y2="400.6" stroke="#86efac" stroke-opacity="0.2" stroke-width="1"/>
<g transform="translate(914.8,385.6)">
<rect width="46.6" height="30" rx="15" fill="#161327" stroke="#86efac" stroke-width="1.4"/>
<text x="23.3" y="20.0" text-anchor="middle" fill="#86efac" class="lbl" font-size="13">AWS</text>
</g>
<circle cx="938.1" cy="400.6" r="2.5" fill="#86efac"/>
<line x1="600.0" y1="310.0" x2="509.4" y2="648.1" stroke="#86efac" stroke-opacity="0.2" stroke-width="1"/>
<g transform="translate(473.8,633.1)">
<rect width="71.2" height="30" rx="15" fill="#161327" stroke="#86efac" stroke-width="1.4"/>
<text x="35.6" y="20.0" text-anchor="middle" fill="#86efac" class="lbl" font-size="13">Vercel</text>
</g>
<circle cx="509.4" cy="648.1" r="2.5" fill="#86efac"/>
<line x1="600.0" y1="310.0" x2="261.9" y2="219.4" stroke="#86efac" stroke-opacity="0.2" stroke-width="1"/>
<g transform="translate(209.9,204.4)">
<rect width="104.0" height="30" rx="15" fill="#161327" stroke="#86efac" stroke-width="1.4"/>
<text x="52.0" y="20.0" text-anchor="middle" fill="#86efac" class="lbl" font-size="13">Cloudflare</text>
</g>
<circle cx="261.9" cy="219.4" r="2.5" fill="#86efac"/>
</svg>